#!OML:ASF E:\Steps\Project 1\Capture day 1\Session 2\Subject.ASF
:FULLY-SPECIFIED
:DEGREES
1
root 8.92614 16.2776 31.4722 -161.673 -0.231027 179.981
lowerback -23.9247 -0.864288 -4.54515
upperback 0.274721 -0.038378 -0.568888
thorax 13.8063 -0.417617 1.92132
lowerneck 1.33629 -2.5506 -4.08958
upperneck -13.3249 -3.53478 7.40855
head -3.97048 -2.22887 3.09535
rclavicle 6.95746e-016 6.75868e-015
rhumerus -31.7904 -15.843 -81.4073
rradius 30.6893
rwrist 1.98337
rhand -7.35474 -55.9387
rfingers 7.12502
rthumb 18.5296 -85.0761
lclavicle 6.95746e-016 6.75868e-015
lhumerus -24.6845 8.66767 79.9725
lradius 27.7378
lwrist 7.13617
lhand -22.5308 -12.732
lfingers 7.12502
lthumb 3.89615 17.2122
rfemur -14.8283 7.17932 19.7338
rtibia 7.89314
rfoot -26.2854 -6.20144
rtoes -17.3901
lfemur -15.695 -9.51757 -18.5234
ltibia 7.79952
lfoot -8.86001 3.23648
ltoes -41.8421
2
root 8.92706 16.2736 31.476 -161.47 -0.312492 179.893
lowerback -24.0049 -0.888296 -4.66732
upperback 0.125561 -0.0522862 -0.581769
thorax 13.6765 -0.434463 1.97105
lowerneck 1.38167 -2.60138 -4.12461
upperneck -13.1934 -3.58825 7.49019
head -3.93239 -2.25111 3.1253
rclavicle 1.98785e-016 -1.43125e-014
rhumerus -32.1188 -16.0129 -81.1565
rradius 30.3736
rwrist 1.86149
rhand -7.42951 -55.8315
rfingers 7.12502
rthumb 18.4577 -84.9758
lclavicle 1.98785e-016 -1.43125e-014
lhumerus -25.0059 8.81106 79.8668
lradius 27.1956
lwrist 6.59528
lhand -22.2647 -12.6489
lfingers 7.12502
lthumb 4.15315 17.2904
rfemur -14.897 6.78121 19.5813
rtibia 7.43865
rfoot -26.1923 -5.78093
rtoes -16.3124
lfemur -16.0168 -9.58388 -18.544
ltibia 7.89346
lfoot -8.88441 3.12283
ltoes -40.8265
3
root 8.92439 16.2709 31.4809 -161.229 -0.368642 179.687
lowerback -24.1408 -0.965213 -4.83603
upperback -0.0104885 -0.116988 -0.625778
thorax 13.5974 -0.478064 1.99352
lowerneck 1.41459 -2.61783 -4.16675
upperneck -13.1262 -3.60316 7.54381
head -3.91451 -2.25602 3.14809
rclavicle 2.98177e-016 -1.19271e-014
rhumerus -32.4288 -16.247 -80.8912
rradius 30.1341
rwrist 1.83105
rhand -7.39632 -55.4784
rfingers 7.12502
rthumb 18.4896 -84.6197
lclavicle 2.98177e-016 -1.19271e-014
lhumerus -25.2712 9.13644 79.6686
lradius 26.5275
lwrist 5.88677
lhand -21.8739 -12.8588
lfingers 7.12502
lthumb 4.53053 17.0728
rfemur -15.4837 6.92586 19.3018
rtibia 8.10003
rfoot -26.5426 -6.03067
rtoes -16.2157
lfemur -16.361 -9.63038 -18.7696
ltibia 8.0027
lfoot -8.86625 3.11639
ltoes -42.0542
4
root 8.92387 16.2645 31.479 -161.131 -0.34177 179.795
lowerback -24.2321 -0.94536 -4.70235
upperback -0.0651922 -0.132919 -0.618671
thorax 13.5847 -0.478265 1.91886
lowerneck 1.34154 -2.64169 -4.14979
upperneck -12.9474 -3.62273 7.61206
head -3.84568 -2.26297 3.1609
rclavicle -9.93923e-017 -2.78299e-014
rhumerus -32.7273 -16.5602 -80.685
rradius 30.0326
rwrist 1.91698
rhand -7.35454 -55.2289
rfingers 7.12502
rthumb 18.5298 -84.3664
lclavicle -9.93923e-017 -2.78299e-014
lhumerus -25.4017 9.68634 79.3399
lradius 25.8866
lwrist 5.48321
lhand -21.5054 -13.0715
lfingers 7.12502
lthumb 4.8864 16.8522
rfemur -15.3296 6.66869 19.4056
rtibia 7.47209
rfoot -26.1623 -5.70805
rtoes -16.2521
lfemur -16.4725 -9.65005 -18.6057
ltibia 7.99121
lfoot -8.8097 3.23481
ltoes -43.1609
5
root 8.92462 16.2595 31.4857 -160.866 -0.343171 179.846
lowerback -24.3278 -0.942401 -4.64699
upperback -0.214986 -0.160851 -0.637638
thorax 13.4632 -0.489664 1.85481
lowerneck 1.27636 -2.61387 -4.27893
upperneck -12.5936 -3.56145 7.75854
head -3.72558 -2.21822 3.21533
rclavicle -7.95139e-016 2.14687e-014
rhumerus -33.0459 -16.9434 -80.4473
rradius 29.8121
rwrist 2.09246
rhand -7.34993 -54.9662
rfingers 7.12502
rthumb 18.5342 -84.1032
lclavicle -7.95139e-016 2.14687e-014
lhumerus -25.5614 10.1226 78.9545
lradius 25.5017
lwrist 5.92275
lhand -21.7363 -13.4994
lfingers 7.12502
lthumb 4.66337 16.4293
rfemur -15.8899 6.99079 19.4003
rtibia 7.94971
rfoot -26.1532 -6.01576
rtoes -16.5713
lfemur -16.883 -9.64032 -18.4377
ltibia 8.10698
lfoot -8.76583 3.16464
ltoes -42.2148
6
root 8.93001 16.2571 31.4994 -160.612 -0.382106 179.908
lowerback -24.3075 -0.964141 -4.6658
upperback -0.412179 -0.216589 -0.619875
thorax 13.2236 -0.518461 1.86636
lowerneck 1.38675 -2.56478 -4.43157
upperneck -12.3484 -3.47431 7.89224
head -3.66935 -2.1627 3.27523
rclavicle -1.98785e-015 -7.95139e-015
rhumerus -33.394 -17.1848 -80.1709
rradius 29.5187
rwrist 2.10901
rhand -7.34668 -54.5337
rfingers 7.12502
rthumb 18.5374 -83.6704
lclavicle -1.98785e-015 -7.95139e-015
lhumerus -25.8477 10.1968 78.6661
lradius 25.0826
lwrist 6.33759
lhand -21.5488 -13.8098
lfingers 7.12502
lthumb 4.84441 16.1148
rfemur -16.3794 7.24241 19.415
rtibia 8.23606
rfoot -20.1346 -6.88554
rtoes -32.8752
lfemur -17.3866 -9.44009 -18.2276
ltibia 8.31726
lfoot -8.7378 2.95145
ltoes -41.3412
